<mxfile host="65bd71144e">
    <diagram id="QZSjQHk_tSelzVDAI_jW" name="Homepage">
        <mxGraphModel dx="1120" dy="779" grid="1" gridSize="10" guides="1" tooltips="1" connect="1" arrows="1" fold="1" page="1" pageScale="1" pageWidth="850" pageHeight="1100" math="0" shadow="0">
            <root>
                <mxCell id="0"/>
                <mxCell id="1" parent="0"/>
                <mxCell id="6" value="Homepage" style="swimlane;startSize=40;horizontal=1;containerType=tree;" parent="1" vertex="1">
                    <mxGeometry x="40" width="800" height="880" as="geometry">
                        <mxRectangle width="80" height="40" as="alternateBounds"/>
                    </mxGeometry>
                </mxCell>
                <mxCell id="73" style="edgeStyle=none;html=1;exitX=0.5;exitY=1;exitDx=0;exitDy=0;entryX=0.5;entryY=0;entryDx=0;entryDy=0;" edge="1" parent="6" source="68" target="70">
                    <mxGeometry relative="1" as="geometry"/>
                </mxCell>
                <mxCell id="68" value="" style="rounded=1;whiteSpace=wrap;html=1;" vertex="1" parent="6">
                    <mxGeometry x="600" y="120" width="120" height="200" as="geometry"/>
                </mxCell>
                <mxCell id="17" value="Salvation" style="swimlane;startSize=40;horizontal=1;containerType=tree;" parent="6" vertex="1" collapsed="1">
                    <mxGeometry x="80" y="40" width="80" height="40" as="geometry">
                        <mxRectangle x="40" y="40" width="920" height="440" as="alternateBounds"/>
                    </mxGeometry>
                </mxCell>
                <mxCell id="18" value="" style="edgeStyle=elbowEdgeStyle;elbow=vertical;startArrow=none;endArrow=none;rounded=0;strokeColor=#FFFFFF;" parent="17" source="19" target="20" edge="1">
                    <mxGeometry relative="1" as="geometry"/>
                </mxCell>
                <mxCell id="19" value="What is Salvation" style="whiteSpace=wrap;html=1;treeFolding=1;treeMoving=1;newEdgeStyle={&quot;edgeStyle&quot;:&quot;elbowEdgeStyle&quot;,&quot;startArrow&quot;:&quot;none&quot;,&quot;endArrow&quot;:&quot;none&quot;};" parent="17" vertex="1">
                    <mxGeometry x="40" y="80" width="400" height="40" as="geometry"/>
                </mxCell>
                <mxCell id="20" value="Intro on Salvation&lt;br&gt;Intro to the Assessment" style="whiteSpace=wrap;html=1;treeFolding=1;treeMoving=1;newEdgeStyle={&quot;edgeStyle&quot;:&quot;elbowEdgeStyle&quot;,&quot;startArrow&quot;:&quot;none&quot;,&quot;endArrow&quot;:&quot;none&quot;};" parent="17" vertex="1">
                    <mxGeometry x="40" y="120" width="400" height="250" as="geometry"/>
                </mxCell>
                <mxCell id="63" value="" style="edgeStyle=elbowEdgeStyle;elbow=vertical;startArrow=none;endArrow=none;rounded=0;strokeColor=#FFFFFF;" parent="17" source="19" target="64" edge="1">
                    <mxGeometry relative="1" as="geometry">
                        <mxPoint x="280" y="160" as="sourcePoint"/>
                    </mxGeometry>
                </mxCell>
                <mxCell id="64" value="&amp;lt;img source&amp;gt;&lt;br&gt;Person being saved or big image of salvation word" style="whiteSpace=wrap;html=1;treeFolding=1;treeMoving=1;newEdgeStyle={&quot;edgeStyle&quot;:&quot;elbowEdgeStyle&quot;,&quot;startArrow&quot;:&quot;none&quot;,&quot;endArrow&quot;:&quot;none&quot;};" parent="17" vertex="1">
                    <mxGeometry x="450" y="120" width="400" height="250" as="geometry"/>
                </mxCell>
                <mxCell id="53" value="Conclusion&#10;Bibliography" style="swimlane;startSize=40;horizontal=1;containerType=tree;" parent="6" vertex="1" collapsed="1">
                    <mxGeometry x="720" y="40" width="80" height="40" as="geometry">
                        <mxRectangle x="10" y="10" width="840" height="840" as="alternateBounds"/>
                    </mxGeometry>
                </mxCell>
                <mxCell id="54" value="" style="edgeStyle=elbowEdgeStyle;elbow=vertical;startArrow=none;endArrow=none;rounded=0;strokeColor=#FFFFFF;" parent="53" source="55" target="56" edge="1" visible="0">
                    <mxGeometry relative="1" as="geometry"/>
                </mxCell>
                <mxCell id="55" value="What is Salvation" style="whiteSpace=wrap;html=1;treeFolding=1;treeMoving=1;newEdgeStyle={&quot;edgeStyle&quot;:&quot;elbowEdgeStyle&quot;,&quot;startArrow&quot;:&quot;none&quot;,&quot;endArrow&quot;:&quot;none&quot;};" parent="53" vertex="1" collapsed="1">
                    <mxGeometry x="40" y="30" width="120" height="40" as="geometry"/>
                </mxCell>
                <mxCell id="56" value="Child" style="whiteSpace=wrap;html=1;treeFolding=1;treeMoving=1;newEdgeStyle={&quot;edgeStyle&quot;:&quot;elbowEdgeStyle&quot;,&quot;startArrow&quot;:&quot;none&quot;,&quot;endArrow&quot;:&quot;none&quot;};" parent="53" vertex="1" visible="0">
                    <mxGeometry x="40" y="80" width="680" height="600" as="geometry"/>
                </mxCell>
                <mxCell id="57" value="" style="edgeStyle=elbowEdgeStyle;elbow=vertical;startArrow=none;endArrow=none;rounded=0;strokeColor=#FFFFFF;" parent="53" source="56" target="58" edge="1" visible="0">
                    <mxGeometry relative="1" as="geometry">
                        <mxPoint x="200" y="100" as="sourcePoint"/>
                    </mxGeometry>
                </mxCell>
                <mxCell id="58" value="Child" style="whiteSpace=wrap;html=1;treeFolding=1;treeMoving=1;newEdgeStyle={&quot;edgeStyle&quot;:&quot;elbowEdgeStyle&quot;,&quot;startArrow&quot;:&quot;none&quot;,&quot;endArrow&quot;:&quot;none&quot;};" parent="53" vertex="1" visible="0" collapsed="1">
                    <mxGeometry x="320" y="720" width="120" height="40" as="geometry"/>
                </mxCell>
                <mxCell id="59" value="Parent" style="whiteSpace=wrap;html=1;treeFolding=1;treeMoving=1;newEdgeStyle={&quot;edgeStyle&quot;:&quot;elbowEdgeStyle&quot;,&quot;startArrow&quot;:&quot;none&quot;,&quot;endArrow&quot;:&quot;none&quot;};" parent="53" vertex="1" collapsed="1">
                    <mxGeometry x="200" y="30" width="120" height="40" as="geometry"/>
                </mxCell>
                <mxCell id="60" value="" style="edgeStyle=elbowEdgeStyle;html=1;elbow=vertical;startArrow=none;endArrow=none;" parent="53" source="59" target="61" edge="1" visible="0">
                    <mxGeometry relative="1" as="geometry"/>
                </mxCell>
                <mxCell id="61" value="Parent" style="whiteSpace=wrap;html=1;treeFolding=1;treeMoving=1;newEdgeStyle={&quot;edgeStyle&quot;:&quot;elbowEdgeStyle&quot;,&quot;startArrow&quot;:&quot;none&quot;,&quot;endArrow&quot;:&quot;none&quot;};" parent="53" vertex="1" visible="0">
                    <mxGeometry x="200" y="110" width="120" height="40" as="geometry"/>
                </mxCell>
                <mxCell id="44" value="Significance" style="swimlane;startSize=40;horizontal=1;containerType=tree;" parent="6" vertex="1" collapsed="1">
                    <mxGeometry x="560" y="40" width="80" height="40" as="geometry">
                        <mxRectangle x="10" y="10" width="840" height="840" as="alternateBounds"/>
                    </mxGeometry>
                </mxCell>
                <mxCell id="45" value="" style="edgeStyle=elbowEdgeStyle;elbow=vertical;startArrow=none;endArrow=none;rounded=0;strokeColor=#FFFFFF;" parent="44" source="46" target="47" edge="1" visible="0">
                    <mxGeometry relative="1" as="geometry"/>
                </mxCell>
                <mxCell id="46" value="What is Salvation" style="whiteSpace=wrap;html=1;treeFolding=1;treeMoving=1;newEdgeStyle={&quot;edgeStyle&quot;:&quot;elbowEdgeStyle&quot;,&quot;startArrow&quot;:&quot;none&quot;,&quot;endArrow&quot;:&quot;none&quot;};" parent="44" vertex="1" collapsed="1">
                    <mxGeometry x="40" y="30" width="120" height="40" as="geometry"/>
                </mxCell>
                <mxCell id="47" value="Child" style="whiteSpace=wrap;html=1;treeFolding=1;treeMoving=1;newEdgeStyle={&quot;edgeStyle&quot;:&quot;elbowEdgeStyle&quot;,&quot;startArrow&quot;:&quot;none&quot;,&quot;endArrow&quot;:&quot;none&quot;};" parent="44" vertex="1" visible="0">
                    <mxGeometry x="40" y="80" width="680" height="600" as="geometry"/>
                </mxCell>
                <mxCell id="48" value="" style="edgeStyle=elbowEdgeStyle;elbow=vertical;startArrow=none;endArrow=none;rounded=0;strokeColor=#FFFFFF;" parent="44" source="47" target="49" edge="1" visible="0">
                    <mxGeometry relative="1" as="geometry">
                        <mxPoint x="200" y="100" as="sourcePoint"/>
                    </mxGeometry>
                </mxCell>
                <mxCell id="49" value="Child" style="whiteSpace=wrap;html=1;treeFolding=1;treeMoving=1;newEdgeStyle={&quot;edgeStyle&quot;:&quot;elbowEdgeStyle&quot;,&quot;startArrow&quot;:&quot;none&quot;,&quot;endArrow&quot;:&quot;none&quot;};" parent="44" vertex="1" visible="0" collapsed="1">
                    <mxGeometry x="320" y="720" width="120" height="40" as="geometry"/>
                </mxCell>
                <mxCell id="50" value="Parent" style="whiteSpace=wrap;html=1;treeFolding=1;treeMoving=1;newEdgeStyle={&quot;edgeStyle&quot;:&quot;elbowEdgeStyle&quot;,&quot;startArrow&quot;:&quot;none&quot;,&quot;endArrow&quot;:&quot;none&quot;};" parent="44" vertex="1" collapsed="1">
                    <mxGeometry x="200" y="30" width="120" height="40" as="geometry"/>
                </mxCell>
                <mxCell id="51" value="" style="edgeStyle=elbowEdgeStyle;html=1;elbow=vertical;startArrow=none;endArrow=none;" parent="44" source="50" target="52" edge="1" visible="0">
                    <mxGeometry relative="1" as="geometry"/>
                </mxCell>
                <mxCell id="52" value="Parent" style="whiteSpace=wrap;html=1;treeFolding=1;treeMoving=1;newEdgeStyle={&quot;edgeStyle&quot;:&quot;elbowEdgeStyle&quot;,&quot;startArrow&quot;:&quot;none&quot;,&quot;endArrow&quot;:&quot;none&quot;};" parent="44" vertex="1" visible="0">
                    <mxGeometry x="200" y="110" width="120" height="40" as="geometry"/>
                </mxCell>
                <mxCell id="35" value="Islam POV" style="swimlane;startSize=40;horizontal=1;containerType=tree;" parent="6" vertex="1" collapsed="1">
                    <mxGeometry x="400" y="40" width="80" height="40" as="geometry">
                        <mxRectangle x="10" y="10" width="840" height="840" as="alternateBounds"/>
                    </mxGeometry>
                </mxCell>
                <mxCell id="36" value="" style="edgeStyle=elbowEdgeStyle;elbow=vertical;startArrow=none;endArrow=none;rounded=0;strokeColor=#FFFFFF;" parent="35" source="37" target="38" edge="1" visible="0">
                    <mxGeometry relative="1" as="geometry"/>
                </mxCell>
                <mxCell id="37" value="What is Salvation" style="whiteSpace=wrap;html=1;treeFolding=1;treeMoving=1;newEdgeStyle={&quot;edgeStyle&quot;:&quot;elbowEdgeStyle&quot;,&quot;startArrow&quot;:&quot;none&quot;,&quot;endArrow&quot;:&quot;none&quot;};" parent="35" vertex="1" collapsed="1">
                    <mxGeometry x="40" y="30" width="120" height="40" as="geometry"/>
                </mxCell>
                <mxCell id="38" value="Child" style="whiteSpace=wrap;html=1;treeFolding=1;treeMoving=1;newEdgeStyle={&quot;edgeStyle&quot;:&quot;elbowEdgeStyle&quot;,&quot;startArrow&quot;:&quot;none&quot;,&quot;endArrow&quot;:&quot;none&quot;};" parent="35" vertex="1" visible="0">
                    <mxGeometry x="40" y="80" width="680" height="600" as="geometry"/>
                </mxCell>
                <mxCell id="39" value="" style="edgeStyle=elbowEdgeStyle;elbow=vertical;startArrow=none;endArrow=none;rounded=0;strokeColor=#FFFFFF;" parent="35" source="38" target="40" edge="1" visible="0">
                    <mxGeometry relative="1" as="geometry">
                        <mxPoint x="200" y="100" as="sourcePoint"/>
                    </mxGeometry>
                </mxCell>
                <mxCell id="40" value="Child" style="whiteSpace=wrap;html=1;treeFolding=1;treeMoving=1;newEdgeStyle={&quot;edgeStyle&quot;:&quot;elbowEdgeStyle&quot;,&quot;startArrow&quot;:&quot;none&quot;,&quot;endArrow&quot;:&quot;none&quot;};" parent="35" vertex="1" visible="0" collapsed="1">
                    <mxGeometry x="320" y="720" width="120" height="40" as="geometry"/>
                </mxCell>
                <mxCell id="41" value="Parent" style="whiteSpace=wrap;html=1;treeFolding=1;treeMoving=1;newEdgeStyle={&quot;edgeStyle&quot;:&quot;elbowEdgeStyle&quot;,&quot;startArrow&quot;:&quot;none&quot;,&quot;endArrow&quot;:&quot;none&quot;};" parent="35" vertex="1" collapsed="1">
                    <mxGeometry x="200" y="30" width="120" height="40" as="geometry"/>
                </mxCell>
                <mxCell id="42" value="" style="edgeStyle=elbowEdgeStyle;html=1;elbow=vertical;startArrow=none;endArrow=none;" parent="35" source="41" target="43" edge="1" visible="0">
                    <mxGeometry relative="1" as="geometry"/>
                </mxCell>
                <mxCell id="43" value="Parent" style="whiteSpace=wrap;html=1;treeFolding=1;treeMoving=1;newEdgeStyle={&quot;edgeStyle&quot;:&quot;elbowEdgeStyle&quot;,&quot;startArrow&quot;:&quot;none&quot;,&quot;endArrow&quot;:&quot;none&quot;};" parent="35" vertex="1" visible="0">
                    <mxGeometry x="200" y="110" width="120" height="40" as="geometry"/>
                </mxCell>
                <mxCell id="26" value="SDA POV" style="swimlane;startSize=40;horizontal=1;containerType=tree;" parent="6" vertex="1" collapsed="1">
                    <mxGeometry x="240" y="40" width="80" height="40" as="geometry">
                        <mxRectangle x="120" y="40" width="840" height="840" as="alternateBounds"/>
                    </mxGeometry>
                </mxCell>
                <mxCell id="27" value="" style="edgeStyle=elbowEdgeStyle;elbow=vertical;startArrow=none;endArrow=none;rounded=0;strokeColor=#FFFFFF;" parent="26" source="28" target="29" edge="1" visible="0">
                    <mxGeometry relative="1" as="geometry"/>
                </mxCell>
                <mxCell id="28" value="What is Salvation" style="whiteSpace=wrap;html=1;treeFolding=1;treeMoving=1;newEdgeStyle={&quot;edgeStyle&quot;:&quot;elbowEdgeStyle&quot;,&quot;startArrow&quot;:&quot;none&quot;,&quot;endArrow&quot;:&quot;none&quot;};" parent="26" vertex="1" collapsed="1">
                    <mxGeometry x="40" y="80" width="120" height="40" as="geometry"/>
                </mxCell>
                <mxCell id="29" value="Child" style="whiteSpace=wrap;html=1;treeFolding=1;treeMoving=1;newEdgeStyle={&quot;edgeStyle&quot;:&quot;elbowEdgeStyle&quot;,&quot;startArrow&quot;:&quot;none&quot;,&quot;endArrow&quot;:&quot;none&quot;};" parent="26" vertex="1" visible="0">
                    <mxGeometry x="40" y="80" width="680" height="600" as="geometry"/>
                </mxCell>
                <mxCell id="30" value="" style="edgeStyle=elbowEdgeStyle;elbow=vertical;startArrow=none;endArrow=none;rounded=0;strokeColor=#FFFFFF;" parent="26" source="29" target="31" edge="1" visible="0">
                    <mxGeometry relative="1" as="geometry">
                        <mxPoint x="200" y="100" as="sourcePoint"/>
                    </mxGeometry>
                </mxCell>
                <mxCell id="31" value="Child" style="whiteSpace=wrap;html=1;treeFolding=1;treeMoving=1;newEdgeStyle={&quot;edgeStyle&quot;:&quot;elbowEdgeStyle&quot;,&quot;startArrow&quot;:&quot;none&quot;,&quot;endArrow&quot;:&quot;none&quot;};" parent="26" vertex="1" visible="0" collapsed="1">
                    <mxGeometry x="320" y="720" width="120" height="40" as="geometry"/>
                </mxCell>
                <mxCell id="65" value="Intro to computer assessment&lt;br&gt;" style="rounded=0;whiteSpace=wrap;html=1;" vertex="1" parent="6">
                    <mxGeometry x="40" y="120" width="440" height="200" as="geometry"/>
                </mxCell>
                <mxCell id="66" value="&amp;lt;footer&amp;gt;micah@peehikuru.net&amp;lt;/footer&amp;gt;" style="rounded=0;whiteSpace=wrap;html=1;" vertex="1" parent="6">
                    <mxGeometry y="840" width="800" height="40" as="geometry"/>
                </mxCell>
                <mxCell id="67" value="" style="ellipse;whiteSpace=wrap;html=1;aspect=fixed;" vertex="1" parent="6">
                    <mxGeometry x="620" y="130" width="80" height="80" as="geometry"/>
                </mxCell>
                <mxCell id="69" value="" style="shape=or;whiteSpace=wrap;html=1;direction=north;" vertex="1" parent="6">
                    <mxGeometry x="620" y="210" width="80" height="90" as="geometry"/>
                </mxCell>
                <mxCell id="70" value="Image of assessment taker" style="rounded=0;whiteSpace=wrap;html=1;" vertex="1" parent="6">
                    <mxGeometry x="600" y="360" width="120" height="60" as="geometry"/>
                </mxCell>
            </root>
        </mxGraphModel>
    </diagram>
</mxfile>